<svg width="734" height="734" viewBox="0 0 734 734" fill="none" xmlns="http://www.w3.org/2000/svg">
<path d="M106.005 335.812C103.517 335.551 101.289 337.354 101.028 339.838C100.768 342.322 102.573 344.547 105.061 344.808C107.549 345.069 109.777 343.267 110.038 340.783C110.299 338.299 108.493 336.073 106.005 335.812Z" fill="#FF6200"/>
<path d="M628.045 388.306C625.557 388.045 623.329 389.848 623.069 392.332C622.808 394.816 624.614 397.041 627.102 397.302C629.59 397.563 631.818 395.761 632.079 393.277C632.339 390.793 630.534 388.568 628.045 388.306Z" fill="#FF6200"/>
<path d="M433.462 109.813C432.181 107.664 429.403 106.959 427.258 108.238C425.112 109.517 424.411 112.295 425.692 114.444C426.973 116.593 429.75 117.299 431.896 116.02C434.041 114.741 434.742 111.962 433.462 109.813Z" fill="#FF6200"/>
<path d="M307.413 618.669C306.132 616.52 303.355 615.814 301.209 617.093C299.064 618.372 298.363 621.151 299.643 623.299C300.924 625.448 303.702 626.154 305.847 624.875C307.993 623.596 308.694 620.817 307.413 618.669Z" fill="#FF6200"/>
<path d="M458.713 117.465C457.432 115.316 454.654 114.611 452.509 115.89C450.363 117.168 449.662 119.947 450.943 122.096C452.224 124.245 455.002 124.95 457.147 123.672C459.293 122.393 459.994 119.614 458.713 117.465Z" fill="#FF6200"/>
<path d="M282.164 611.019C280.884 608.87 278.106 608.164 275.96 609.443C273.815 610.722 273.114 613.501 274.395 615.65C275.676 617.799 278.453 618.504 280.599 617.225C282.744 615.946 283.445 613.168 282.164 611.019Z" fill="#FF6200"/>
<path d="M482.853 604.74C483.47 602.316 482.007 599.851 479.587 599.235C477.166 598.62 474.704 600.086 474.087 602.51C473.47 604.935 474.933 607.399 477.353 608.015C479.774 608.631 482.236 607.165 482.853 604.74Z" fill="#FF6200"/>
<path d="M259.05 130.586C259.667 128.162 258.205 125.697 255.784 125.082C253.363 124.466 250.901 125.932 250.284 128.357C249.668 130.781 251.13 133.246 253.551 133.861C255.971 134.477 258.434 133.011 259.05 130.586Z" fill="#FF6200"/>
<path d="M567.206 539.76C566.819 537.288 564.505 535.598 562.037 535.984C559.569 536.371 557.883 538.688 558.27 541.159C558.657 543.631 560.971 545.321 563.439 544.935C565.907 544.548 567.593 542.231 567.206 539.76Z" fill="#FF6200"/>
<path d="M174.867 191.938C174.48 189.467 172.166 187.776 169.698 188.163C167.231 188.549 165.544 190.866 165.931 193.338C166.318 195.81 168.633 197.5 171.1 197.113C173.568 196.727 175.254 194.41 174.867 191.938Z" fill="#FF6200"/>
<path d="M624.765 301.521C623.484 299.372 620.707 298.667 618.561 299.946C616.416 301.224 615.715 304.003 616.996 306.152C618.276 308.301 621.054 309.006 623.2 307.728C625.345 306.449 626.046 303.67 624.765 301.521Z" fill="#FD8235" fill-opacity="0.5"/>
<path d="M116.131 426.996C114.85 424.847 112.073 424.142 109.927 425.42C107.782 426.699 107.081 429.478 108.361 431.627C109.642 433.776 112.42 434.481 114.565 433.202C116.711 431.924 117.412 429.145 116.131 426.996Z" fill="#FD8235" fill-opacity="0.5"/>
<path d="M393.439 631.26C395.588 629.979 396.293 627.201 395.014 625.056C393.736 622.91 390.957 622.209 388.808 623.49C386.659 624.771 385.953 627.549 387.232 629.694C388.511 631.84 391.29 632.541 393.439 631.26Z" fill="#FF6200"/>
<path d="M344.299 109.623C346.447 108.342 347.153 105.564 345.874 103.419C344.595 101.273 341.817 100.572 339.668 101.853C337.519 103.134 336.813 105.911 338.092 108.057C339.371 110.203 342.15 110.904 344.299 109.623Z" fill="#FF6200"/>
<path d="M505.697 139.845C504.416 137.696 501.638 136.99 499.493 138.269C497.347 139.548 496.646 142.327 497.927 144.476C499.208 146.625 501.986 147.33 504.131 146.051C506.277 144.772 506.978 141.994 505.697 139.845Z" fill="#FD8235" fill-opacity="0.5"/>
<path d="M235.209 588.62C233.928 586.471 231.15 585.766 229.005 587.044C226.859 588.323 226.158 591.102 227.439 593.251C228.72 595.4 231.498 596.105 233.643 594.826C235.789 593.548 236.49 590.769 235.209 588.62Z" fill="#FD8235" fill-opacity="0.5"/>
<path d="M592.43 225.255C591.149 223.106 588.371 222.401 586.226 223.679C584.08 224.958 583.379 227.737 584.66 229.886C585.941 232.035 588.719 232.74 590.864 231.461C593.01 230.183 593.711 227.404 592.43 225.255Z" fill="#FD8235" fill-opacity="0.5"/>
<path d="M148.447 503.23C147.166 501.081 144.389 500.375 142.243 501.654C140.097 502.933 139.396 505.711 140.677 507.86C141.958 510.009 144.736 510.715 146.881 509.436C149.027 508.157 149.728 505.378 148.447 503.23Z" fill="#FD8235" fill-opacity="0.5"/>
<path d="M235.505 592.264C236.119 589.839 234.654 587.376 232.232 586.763C229.811 586.15 227.35 587.62 226.737 590.045C226.123 592.47 227.588 594.933 230.009 595.546C232.431 596.159 234.891 594.689 235.505 592.264Z" fill="#FD8235" fill-opacity="0.5"/>
<path d="M506.401 143.053C507.015 140.628 505.55 138.165 503.128 137.552C500.707 136.939 498.246 138.408 497.632 140.834C497.019 143.259 498.484 145.722 500.905 146.335C503.327 146.947 505.787 145.478 506.401 143.053Z" fill="#FD8235" fill-opacity="0.5"/>
<path d="M203.964 569.874C204.578 567.449 203.113 564.986 200.691 564.373C198.27 563.76 195.809 565.23 195.196 567.655C194.582 570.08 196.047 572.543 198.468 573.156C200.89 573.769 203.35 572.299 203.964 569.874Z" fill="#FF6200"/>
<path d="M537.91 165.458C538.524 163.032 537.058 160.569 534.637 159.957C532.216 159.344 529.755 160.813 529.141 163.238C528.527 165.663 529.993 168.126 532.414 168.739C534.835 169.352 537.296 167.883 537.91 165.458Z" fill="#FF6200"/>
</svg>
