<svg width="1000" height="1000" viewBox="0 0 1000 1000" fill="none" xmlns="http://www.w3.org/2000/svg">
<circle cx="500" cy="500" r="167.9" stroke="white" stroke-width="0.2"/>
<circle cx="500" cy="500" r="167.5" stroke="white" stroke-dasharray="100 100"/>
<circle cx="501" cy="501" r="123.75" stroke="white" stroke-width="0.5"/>
<circle cx="500" cy="500" r="97.9" transform="rotate(45 500 500)" stroke="white" stroke-width="0.2" stroke-dasharray="120 50"/>
<circle cx="500" cy="500" r="33.9" stroke="white" stroke-width="0.2" stroke-dasharray="2 2"/>
<rect x="437" y="499" width="24" height="1" fill="white"/>
<rect x="539" y="499" width="24" height="1" fill="white"/>
<rect x="505" y="499" width="24" height="1" fill="white"/>
<rect x="471" y="499" width="24" height="1" fill="white"/>
<circle cx="498.5" cy="497.5" r="1" stroke="white"/>
<circle cx="498.5" cy="501.5" r="1" stroke="white"/>
<circle cx="502.5" cy="497.5" r="1" stroke="white"/>
<circle cx="502.5" cy="501.5" r="1" stroke="white"/>
<mask id="mask0" style="mask-type:alpha" maskUnits="userSpaceOnUse" x="0" y="0" width="1000" height="1000">
<rect width="1000" height="1000" fill="#C4C4C4"/>
</mask>
<g mask="url(#mask0)">
<g opacity="0.5">
<line opacity="0.1" x1="701.917" y1="250" x2="1768" y2="250" stroke="white" stroke-width="2"/>
<line opacity="0.1" x1="-768" y1="250" x2="298.083" y2="250" stroke="white" stroke-width="2"/>
</g>
<ellipse cx="500.5" cy="501" rx="239.5" ry="239" fill="white" fill-opacity="0.02"/>
<circle cx="500" cy="192" r="3.5" stroke="white"/>
<circle cx="500" cy="777" r="15.5" stroke="white"/>
<line x1="418" y1="770" x2="418" y2="783" stroke="white" stroke-width="2"/>
<line x1="584" y1="770" x2="584" y2="783" stroke="white" stroke-width="2"/>
<path d="M384 507.5L324 507.5L324 520" stroke="white" stroke-width="2"/>
<path d="M616 507L676 507L676 520" stroke="white" stroke-width="2"/>
<circle cx="500" cy="501" r="5.5" stroke="white"/>
<circle cx="500" cy="501" r="40" stroke="white" stroke-linecap="round" stroke-dasharray="300 300"/>
<circle cx="500" cy="411" r="1.5" fill="white" stroke="white"/>
<circle cx="500" cy="358" r="1.5" fill="white" stroke="white"/>
<line x1="500" y1="506" x2="500" y2="600" stroke="white" stroke-width="4"/>
<circle cx="500" cy="276" r="3.5" fill="white" stroke="white"/>
<line x1="433" y1="270" x2="433" y2="281" stroke="white" stroke-width="2"/>
<line x1="569" y1="270" x2="569" y2="281" stroke="white" stroke-width="2"/>
<line x1="405" y1="210" x2="405" y2="234" stroke="white" stroke-width="2"/>
<line x1="605" y1="210" x2="605" y2="234" stroke="white" stroke-width="2"/>
<path d="M438.088 226.12C437.424 226.12 436.848 226.016 436.36 225.808C435.88 225.6 435.512 225.328 435.256 224.992C435 224.648 434.864 224.28 434.848 223.888C434.848 223.824 434.872 223.768 434.92 223.72C434.976 223.664 435.04 223.636 435.112 223.636H435.724C435.876 223.636 435.98 223.716 436.036 223.876C436.108 224.212 436.312 224.5 436.648 224.74C436.992 224.98 437.472 225.1 438.088 225.1C438.752 225.1 439.252 224.984 439.588 224.752C439.924 224.512 440.092 224.18 440.092 223.756C440.092 223.484 440.008 223.264 439.84 223.096C439.68 222.928 439.44 222.78 439.12 222.652C438.8 222.524 438.32 222.364 437.68 222.172C437.056 221.996 436.56 221.808 436.192 221.608C435.824 221.408 435.548 221.16 435.364 220.864C435.18 220.568 435.088 220.196 435.088 219.748C435.088 219.316 435.204 218.928 435.436 218.584C435.676 218.24 436.016 217.972 436.456 217.78C436.896 217.58 437.42 217.48 438.028 217.48C438.652 217.48 439.188 217.592 439.636 217.816C440.084 218.032 440.424 218.308 440.656 218.644C440.888 218.98 441.012 219.316 441.028 219.652C441.028 219.716 441.004 219.772 440.956 219.82C440.916 219.868 440.856 219.892 440.776 219.892H440.14C439.972 219.892 439.868 219.816 439.828 219.664C439.78 219.328 439.592 219.052 439.264 218.836C438.936 218.612 438.524 218.5 438.028 218.5C437.484 218.5 437.056 218.604 436.744 218.812C436.432 219.02 436.276 219.328 436.276 219.736C436.276 220.008 436.348 220.232 436.492 220.408C436.644 220.584 436.872 220.74 437.176 220.876C437.48 221.004 437.924 221.152 438.508 221.32C439.188 221.504 439.724 221.696 440.116 221.896C440.508 222.088 440.8 222.332 440.992 222.628C441.184 222.916 441.28 223.284 441.28 223.732C441.28 224.476 440.992 225.06 440.416 225.484C439.84 225.908 439.064 226.12 438.088 226.12ZM445.877 226.12C444.805 226.12 443.989 225.832 443.429 225.256C442.877 224.68 442.581 223.884 442.541 222.868C442.533 222.652 442.529 222.3 442.529 221.812C442.529 221.316 442.533 220.956 442.541 220.732C442.581 219.724 442.881 218.932 443.441 218.356C444.001 217.772 444.813 217.48 445.877 217.48C446.589 217.48 447.193 217.608 447.689 217.864C448.185 218.112 448.561 218.44 448.817 218.848C449.073 219.256 449.213 219.692 449.237 220.156V220.18C449.237 220.244 449.209 220.3 449.153 220.348C449.105 220.388 449.049 220.408 448.985 220.408H448.325C448.165 220.408 448.065 220.316 448.025 220.132C447.889 219.532 447.645 219.112 447.293 218.872C446.941 218.624 446.469 218.5 445.877 218.5C444.501 218.5 443.789 219.264 443.741 220.792C443.733 221.008 443.729 221.34 443.729 221.788C443.729 222.236 443.733 222.576 443.741 222.808C443.789 224.336 444.501 225.1 445.877 225.1C446.469 225.1 446.941 224.98 447.293 224.74C447.653 224.492 447.897 224.068 448.025 223.468C448.049 223.364 448.085 223.292 448.133 223.252C448.181 223.212 448.245 223.192 448.325 223.192H448.985C449.057 223.192 449.117 223.216 449.165 223.264C449.221 223.304 449.245 223.36 449.237 223.432C449.213 223.904 449.073 224.344 448.817 224.752C448.561 225.16 448.185 225.492 447.689 225.748C447.193 225.996 446.589 226.12 445.877 226.12ZM450.199 226C450.135 226 450.079 225.976 450.031 225.928C449.983 225.88 449.959 225.824 449.959 225.76C449.959 225.696 449.963 225.652 449.971 225.628L452.947 217.864C453.011 217.688 453.139 217.6 453.331 217.6H454.147C454.339 217.6 454.467 217.688 454.531 217.864L457.495 225.628L457.519 225.76C457.519 225.824 457.495 225.88 457.447 225.928C457.399 225.976 457.343 226 457.279 226H456.667C456.579 226 456.511 225.98 456.463 225.94C456.415 225.892 456.383 225.844 456.367 225.796L455.707 224.092H451.771L451.111 225.796C451.095 225.844 451.059 225.892 451.003 225.94C450.955 225.98 450.891 226 450.811 226H450.199ZM455.359 223.06L453.739 218.8L452.119 223.06H455.359ZM459.078 226C458.998 226 458.93 225.976 458.874 225.928C458.826 225.872 458.802 225.804 458.802 225.724V217.888C458.802 217.8 458.826 217.732 458.874 217.684C458.93 217.628 458.998 217.6 459.078 217.6H459.63C459.774 217.6 459.874 217.656 459.93 217.768L463.914 223.888V217.888C463.914 217.8 463.938 217.732 463.986 217.684C464.042 217.628 464.11 217.6 464.19 217.6H464.766C464.854 217.6 464.922 217.628 464.97 217.684C465.026 217.732 465.054 217.8 465.054 217.888V225.712C465.054 225.792 465.026 225.86 464.97 225.916C464.922 225.972 464.858 226 464.778 226H464.202C464.082 226 463.986 225.944 463.914 225.832L459.942 219.772V225.724C459.942 225.804 459.914 225.872 459.858 225.928C459.802 225.976 459.734 226 459.654 226H459.078ZM467.422 226C467.342 226 467.274 225.976 467.218 225.928C467.17 225.872 467.146 225.804 467.146 225.724V217.888C467.146 217.8 467.17 217.732 467.218 217.684C467.274 217.628 467.342 217.6 467.422 217.6H467.974C468.118 217.6 468.218 217.656 468.274 217.768L472.258 223.888V217.888C472.258 217.8 472.282 217.732 472.33 217.684C472.386 217.628 472.454 217.6 472.534 217.6H473.11C473.198 217.6 473.266 217.628 473.314 217.684C473.37 217.732 473.398 217.8 473.398 217.888V225.712C473.398 225.792 473.37 225.86 473.314 225.916C473.266 225.972 473.202 226 473.122 226H472.546C472.426 226 472.33 225.944 472.258 225.832L468.286 219.772V225.724C468.286 225.804 468.258 225.872 468.202 225.928C468.146 225.976 468.078 226 467.998 226H467.422ZM475.765 226C475.685 226 475.617 225.976 475.561 225.928C475.513 225.872 475.489 225.804 475.489 225.724V217.876C475.489 217.796 475.513 217.732 475.561 217.684C475.617 217.628 475.685 217.6 475.765 217.6H476.401C476.481 217.6 476.545 217.628 476.593 217.684C476.649 217.732 476.677 217.796 476.677 217.876V225.724C476.677 225.804 476.649 225.872 476.593 225.928C476.545 225.976 476.481 226 476.401 226H475.765ZM479.047 226C478.967 226 478.899 225.976 478.843 225.928C478.795 225.872 478.771 225.804 478.771 225.724V217.888C478.771 217.8 478.795 217.732 478.843 217.684C478.899 217.628 478.967 217.6 479.047 217.6H479.599C479.743 217.6 479.843 217.656 479.899 217.768L483.883 223.888V217.888C483.883 217.8 483.907 217.732 483.955 217.684C484.011 217.628 484.079 217.6 484.159 217.6H484.735C484.823 217.6 484.891 217.628 484.939 217.684C484.995 217.732 485.023 217.8 485.023 217.888V225.712C485.023 225.792 484.995 225.86 484.939 225.916C484.891 225.972 484.827 226 484.747 226H484.171C484.051 226 483.955 225.944 483.883 225.832L479.911 219.772V225.724C479.911 225.804 479.883 225.872 479.827 225.928C479.771 225.976 479.703 226 479.623 226H479.047ZM490.174 226.12C489.126 226.12 488.31 225.836 487.726 225.268C487.15 224.692 486.842 223.908 486.802 222.916C486.794 222.676 486.79 222.3 486.79 221.788C486.79 221.268 486.794 220.892 486.802 220.66C486.842 219.676 487.154 218.9 487.738 218.332C488.322 217.764 489.134 217.48 490.174 217.48C490.878 217.48 491.474 217.608 491.962 217.864C492.458 218.112 492.83 218.416 493.078 218.776C493.326 219.136 493.458 219.472 493.474 219.784V219.808C493.474 219.872 493.45 219.924 493.402 219.964C493.354 220.004 493.294 220.024 493.222 220.024H492.514C492.434 220.024 492.374 220.012 492.334 219.988C492.302 219.956 492.27 219.896 492.238 219.808C492.118 219.448 491.886 219.14 491.542 218.884C491.206 218.628 490.75 218.5 490.174 218.5C489.51 218.5 488.99 218.68 488.614 219.04C488.238 219.4 488.034 219.96 488.002 220.72C487.994 220.952 487.99 221.308 487.99 221.788C487.99 222.26 487.994 222.616 488.002 222.856C488.034 223.624 488.238 224.192 488.614 224.56C488.99 224.92 489.51 225.1 490.174 225.1C490.846 225.1 491.382 224.916 491.782 224.548C492.182 224.18 492.382 223.628 492.382 222.892V222.388H490.582C490.502 222.388 490.434 222.364 490.378 222.316C490.33 222.26 490.306 222.188 490.306 222.1V221.716C490.306 221.636 490.33 221.568 490.378 221.512C490.434 221.456 490.502 221.428 490.582 221.428H493.294C493.374 221.428 493.438 221.456 493.486 221.512C493.542 221.56 493.57 221.628 493.57 221.716V222.868C493.57 223.524 493.434 224.096 493.162 224.584C492.89 225.072 492.498 225.452 491.986 225.724C491.474 225.988 490.87 226.12 490.174 226.12ZM498.5 226C498.42 226 498.352 225.976 498.296 225.928C498.248 225.872 498.224 225.804 498.224 225.724V217.876C498.224 217.796 498.248 217.732 498.296 217.684C498.352 217.628 498.42 217.6 498.5 217.6H499.136C499.216 217.6 499.28 217.628 499.328 217.684C499.384 217.732 499.412 217.796 499.412 217.876V225.724C499.412 225.804 499.384 225.872 499.328 225.928C499.28 225.976 499.216 226 499.136 226H498.5ZM501.781 226C501.701 226 501.633 225.976 501.577 225.928C501.529 225.872 501.505 225.804 501.505 225.724V217.888C501.505 217.8 501.529 217.732 501.577 217.684C501.633 217.628 501.701 217.6 501.781 217.6H502.333C502.477 217.6 502.577 217.656 502.633 217.768L506.617 223.888V217.888C506.617 217.8 506.641 217.732 506.689 217.684C506.745 217.628 506.813 217.6 506.893 217.6H507.469C507.557 217.6 507.625 217.628 507.673 217.684C507.729 217.732 507.757 217.8 507.757 217.888V225.712C507.757 225.792 507.729 225.86 507.673 225.916C507.625 225.972 507.561 226 507.481 226H506.905C506.785 226 506.689 225.944 506.617 225.832L502.645 219.772V225.724C502.645 225.804 502.617 225.872 502.561 225.928C502.505 225.976 502.437 226 502.357 226H501.781ZM513.066 226C512.986 226 512.918 225.976 512.862 225.928C512.814 225.872 512.79 225.804 512.79 225.724V217.888C512.79 217.8 512.814 217.732 512.862 217.684C512.918 217.628 512.986 217.6 513.066 217.6H516.114C517.018 217.6 517.73 217.82 518.25 218.26C518.77 218.7 519.03 219.336 519.03 220.168C519.03 221 518.77 221.636 518.25 222.076C517.738 222.508 517.026 222.724 516.114 222.724H513.99V225.724C513.99 225.804 513.962 225.872 513.906 225.928C513.85 225.976 513.782 226 513.702 226H513.066ZM516.054 221.716C516.638 221.716 517.078 221.584 517.374 221.32C517.678 221.056 517.83 220.672 517.83 220.168C517.83 219.664 517.682 219.28 517.386 219.016C517.09 218.744 516.646 218.608 516.054 218.608H513.978V221.716H516.054ZM520.765 226C520.685 226 520.617 225.976 520.561 225.928C520.513 225.872 520.489 225.804 520.489 225.724V217.888C520.489 217.8 520.513 217.732 520.561 217.684C520.617 217.628 520.685 217.6 520.765 217.6H523.693C524.613 217.6 525.333 217.816 525.853 218.248C526.373 218.68 526.633 219.304 526.633 220.12C526.633 220.728 526.481 221.228 526.177 221.62C525.881 222.012 525.461 222.284 524.917 222.436L526.765 225.628C526.789 225.676 526.801 225.72 526.801 225.76C526.801 225.824 526.773 225.88 526.717 225.928C526.669 225.976 526.613 226 526.549 226H525.973C525.853 226 525.757 225.972 525.685 225.916C525.621 225.86 525.561 225.78 525.505 225.676L523.765 222.628H521.665V225.724C521.665 225.804 521.637 225.872 521.581 225.928C521.525 225.976 521.457 226 521.377 226H520.765ZM523.645 221.608C524.837 221.608 525.433 221.108 525.433 220.108C525.433 219.108 524.837 218.608 523.645 218.608H521.665V221.608H523.645ZM531.365 226.12C530.317 226.12 529.505 225.848 528.929 225.304C528.361 224.752 528.061 223.924 528.029 222.82C528.021 222.58 528.017 222.24 528.017 221.8C528.017 221.36 528.021 221.024 528.029 220.792C528.061 219.712 528.373 218.892 528.965 218.332C529.557 217.764 530.357 217.48 531.365 217.48C532.365 217.48 533.161 217.764 533.753 218.332C534.345 218.892 534.657 219.712 534.689 220.792C534.705 221.256 534.713 221.592 534.713 221.8C534.713 222 534.705 222.34 534.689 222.82C534.657 223.924 534.353 224.752 533.777 225.304C533.209 225.848 532.405 226.12 531.365 226.12ZM531.365 225.1C531.997 225.1 532.501 224.908 532.877 224.524C533.253 224.14 533.457 223.552 533.489 222.76C533.505 222.28 533.513 221.96 533.513 221.8C533.513 221.624 533.505 221.304 533.489 220.84C533.457 220.048 533.249 219.46 532.865 219.076C532.489 218.692 531.989 218.5 531.365 218.5C530.733 218.5 530.225 218.692 529.841 219.076C529.465 219.46 529.261 220.048 529.229 220.84C529.221 221.072 529.217 221.392 529.217 221.8C529.217 222.2 529.221 222.52 529.229 222.76C529.261 223.552 529.465 224.14 529.841 224.524C530.225 224.908 530.733 225.1 531.365 225.1ZM539.522 226.12C538.474 226.12 537.658 225.836 537.074 225.268C536.498 224.692 536.19 223.908 536.15 222.916C536.142 222.676 536.138 222.3 536.138 221.788C536.138 221.268 536.142 220.892 536.15 220.66C536.19 219.676 536.502 218.9 537.086 218.332C537.67 217.764 538.482 217.48 539.522 217.48C540.226 217.48 540.822 217.608 541.31 217.864C541.806 218.112 542.178 218.416 542.426 218.776C542.674 219.136 542.806 219.472 542.822 219.784V219.808C542.822 219.872 542.798 219.924 542.75 219.964C542.702 220.004 542.642 220.024 542.57 220.024H541.862C541.782 220.024 541.722 220.012 541.682 219.988C541.65 219.956 541.618 219.896 541.586 219.808C541.466 219.448 541.234 219.14 540.89 218.884C540.554 218.628 540.098 218.5 539.522 218.5C538.858 218.5 538.338 218.68 537.962 219.04C537.586 219.4 537.382 219.96 537.35 220.72C537.342 220.952 537.338 221.308 537.338 221.788C537.338 222.26 537.342 222.616 537.35 222.856C537.382 223.624 537.586 224.192 537.962 224.56C538.338 224.92 538.858 225.1 539.522 225.1C540.194 225.1 540.73 224.916 541.13 224.548C541.53 224.18 541.73 223.628 541.73 222.892V222.388H539.93C539.85 222.388 539.782 222.364 539.726 222.316C539.678 222.26 539.654 222.188 539.654 222.1V221.716C539.654 221.636 539.678 221.568 539.726 221.512C539.782 221.456 539.85 221.428 539.93 221.428H542.642C542.722 221.428 542.786 221.456 542.834 221.512C542.89 221.56 542.918 221.628 542.918 221.716V222.868C542.918 223.524 542.782 224.096 542.51 224.584C542.238 225.072 541.846 225.452 541.334 225.724C540.822 225.988 540.218 226.12 539.522 226.12ZM544.906 226C544.826 226 544.758 225.976 544.702 225.928C544.654 225.872 544.63 225.804 544.63 225.724V217.888C544.63 217.8 544.654 217.732 544.702 217.684C544.758 217.628 544.826 217.6 544.906 217.6H547.834C548.754 217.6 549.474 217.816 549.994 218.248C550.514 218.68 550.774 219.304 550.774 220.12C550.774 220.728 550.622 221.228 550.318 221.62C550.022 222.012 549.602 222.284 549.058 222.436L550.906 225.628C550.93 225.676 550.942 225.72 550.942 225.76C550.942 225.824 550.914 225.88 550.858 225.928C550.81 225.976 550.754 226 550.69 226H550.114C549.994 226 549.898 225.972 549.826 225.916C549.762 225.86 549.702 225.78 549.646 225.676L547.906 222.628H545.806V225.724C545.806 225.804 545.778 225.872 545.722 225.928C545.666 225.976 545.598 226 545.518 226H544.906ZM547.786 221.608C548.978 221.608 549.574 221.108 549.574 220.108C549.574 219.108 548.978 218.608 547.786 218.608H545.806V221.608H547.786ZM552.769 226C552.689 226 552.621 225.976 552.565 225.928C552.517 225.872 552.493 225.804 552.493 225.724V217.888C552.493 217.8 552.517 217.732 552.565 217.684C552.621 217.628 552.689 217.6 552.769 217.6H557.725C557.805 217.6 557.869 217.628 557.917 217.684C557.973 217.732 558.001 217.8 558.001 217.888V218.344C558.001 218.424 557.977 218.492 557.929 218.548C557.881 218.596 557.813 218.62 557.725 218.62H553.645V221.248H557.461C557.541 221.248 557.605 221.276 557.653 221.332C557.709 221.38 557.737 221.448 557.737 221.536V221.98C557.737 222.06 557.709 222.128 557.653 222.184C557.605 222.232 557.541 222.256 557.461 222.256H553.645V224.98H557.821C557.909 224.98 557.977 225.004 558.025 225.052C558.073 225.1 558.097 225.168 558.097 225.256V225.724C558.097 225.804 558.069 225.872 558.013 225.928C557.965 225.976 557.901 226 557.821 226H552.769ZM562.471 226.12C561.807 226.12 561.231 226.016 560.743 225.808C560.263 225.6 559.895 225.328 559.639 224.992C559.383 224.648 559.247 224.28 559.231 223.888C559.231 223.824 559.255 223.768 559.303 223.72C559.359 223.664 559.423 223.636 559.495 223.636H560.107C560.259 223.636 560.363 223.716 560.419 223.876C560.491 224.212 560.695 224.5 561.031 224.74C561.375 224.98 561.855 225.1 562.471 225.1C563.135 225.1 563.635 224.984 563.971 224.752C564.307 224.512 564.475 224.18 564.475 223.756C564.475 223.484 564.391 223.264 564.223 223.096C564.063 222.928 563.823 222.78 563.503 222.652C563.183 222.524 562.703 222.364 562.063 222.172C561.439 221.996 560.943 221.808 560.575 221.608C560.207 221.408 559.931 221.16 559.747 220.864C559.563 220.568 559.471 220.196 559.471 219.748C559.471 219.316 559.587 218.928 559.819 218.584C560.059 218.24 560.399 217.972 560.839 217.78C561.279 217.58 561.803 217.48 562.411 217.48C563.035 217.48 563.571 217.592 564.019 217.816C564.467 218.032 564.807 218.308 565.039 218.644C565.271 218.98 565.395 219.316 565.411 219.652C565.411 219.716 565.387 219.772 565.339 219.82C565.299 219.868 565.239 219.892 565.159 219.892H564.523C564.355 219.892 564.251 219.816 564.211 219.664C564.163 219.328 563.975 219.052 563.647 218.836C563.319 218.612 562.907 218.5 562.411 218.5C561.867 218.5 561.439 218.604 561.127 218.812C560.815 219.02 560.659 219.328 560.659 219.736C560.659 220.008 560.731 220.232 560.875 220.408C561.027 220.584 561.255 220.74 561.559 220.876C561.863 221.004 562.307 221.152 562.891 221.32C563.571 221.504 564.107 221.696 564.499 221.896C564.891 222.088 565.183 222.332 565.375 222.628C565.567 222.916 565.663 223.284 565.663 223.732C565.663 224.476 565.375 225.06 564.799 225.484C564.223 225.908 563.447 226.12 562.471 226.12ZM569.935 226.12C569.271 226.12 568.695 226.016 568.207 225.808C567.727 225.6 567.359 225.328 567.103 224.992C566.847 224.648 566.711 224.28 566.695 223.888C566.695 223.824 566.719 223.768 566.767 223.72C566.823 223.664 566.887 223.636 566.959 223.636H567.571C567.723 223.636 567.827 223.716 567.883 223.876C567.955 224.212 568.159 224.5 568.495 224.74C568.839 224.98 569.319 225.1 569.935 225.1C570.599 225.1 571.099 224.984 571.435 224.752C571.771 224.512 571.939 224.18 571.939 223.756C571.939 223.484 571.855 223.264 571.687 223.096C571.527 222.928 571.287 222.78 570.967 222.652C570.647 222.524 570.167 222.364 569.527 222.172C568.903 221.996 568.407 221.808 568.039 221.608C567.671 221.408 567.395 221.16 567.211 220.864C567.027 220.568 566.935 220.196 566.935 219.748C566.935 219.316 567.051 218.928 567.283 218.584C567.523 218.24 567.863 217.972 568.303 217.78C568.743 217.58 569.267 217.48 569.875 217.48C570.499 217.48 571.035 217.592 571.483 217.816C571.931 218.032 572.271 218.308 572.503 218.644C572.735 218.98 572.859 219.316 572.875 219.652C572.875 219.716 572.851 219.772 572.803 219.82C572.763 219.868 572.703 219.892 572.623 219.892H571.987C571.819 219.892 571.715 219.816 571.675 219.664C571.627 219.328 571.439 219.052 571.111 218.836C570.783 218.612 570.371 218.5 569.875 218.5C569.331 218.5 568.903 218.604 568.591 218.812C568.279 219.02 568.123 219.328 568.123 219.736C568.123 220.008 568.195 220.232 568.339 220.408C568.491 220.584 568.719 220.74 569.023 220.876C569.327 221.004 569.771 221.152 570.355 221.32C571.035 221.504 571.571 221.696 571.963 221.896C572.355 222.088 572.647 222.332 572.839 222.628C573.031 222.916 573.127 223.284 573.127 223.732C573.127 224.476 572.839 225.06 572.263 225.484C571.687 225.908 570.911 226.12 569.935 226.12Z" fill="white"/>
<mask id="mask1" style="mask-type:alpha" maskUnits="userSpaceOnUse" x="-2" y="-1" width="1003" height="1003">
<circle cx="499.5" cy="500.5" r="499.5" stroke="white" stroke-width="3" stroke-linecap="round" stroke-dasharray="300 300"/>
</mask>
<g mask="url(#mask1)">
<path d="M-39 711H1441V1143.95H-39V711Z" fill="#C4C4C4"/>
</g>
</g>
</svg>
