<svg width="400" height="400" viewBox="0 0 400 400" fill="none" xmlns="http://www.w3.org/2000/svg">
<g clip-path="url(#clip0)">
<circle cx="200" cy="200" r="194.5" stroke="white" stroke-width="11"/>
<path d="M14.3265 391.111C14.3265 395.079 11.4102 398 8.16327 398C4.91631 398 2 395.079 2 391.111C2 387.143 4.91631 384.222 8.16327 384.222C11.4102 384.222 14.3265 387.143 14.3265 391.111Z" fill="#C4C4C4" stroke="white" stroke-width="4"/>
<path d="M398 391.111C398 395.079 395.084 398 391.837 398C388.59 398 385.674 395.079 385.674 391.111C385.674 387.143 388.59 384.222 391.837 384.222C395.084 384.222 398 387.143 398 391.111Z" fill="#C4C4C4" stroke="white" stroke-width="4"/>
<path d="M14.3265 8.88889C14.3265 12.8573 11.4102 15.7778 8.16327 15.7778C4.91631 15.7778 2 12.8573 2 8.88889C2 4.92052 4.91631 2 8.16327 2C11.4102 2 14.3265 4.92052 14.3265 8.88889Z" fill="#C4C4C4" stroke="white" stroke-width="4"/>
<path d="M398 8.88889C398 12.8573 395.084 15.7778 391.837 15.7778C388.59 15.7778 385.674 12.8573 385.674 8.88889C385.674 4.92052 388.59 2 391.837 2C395.084 2 398 4.92052 398 8.88889Z" fill="#C4C4C4" stroke="white" stroke-width="4"/>
</g>
<defs>
<clipPath id="clip0">
<rect width="400" height="400" fill="white"/>
</clipPath>
</defs>
</svg>
