<svg width="100%" height="100%" viewBox="0 0 808 810" fill="none" xmlns="http://www.w3.org/2000/svg" class="" style="">
<path d="M50.4702 405C50.5177 355.652 60.8853 306.86 80.9071 261.757C100.929 216.653 130.162 176.236 166.73 143.1L177.86 155.44C143.012 187.014 115.151 225.526 96.0658 268.504C76.981 311.482 67.0942 357.975 67.0402 405C67.0402 590.5 217.99 741.5 403.54 741.5H404.33V758.12H403.54C208.85 758.08 50.4702 599.65 50.4702 405ZM314.85 63.14C343.679 55.676 373.34 51.9058 403.12 51.92V68.5C374.743 68.5072 346.482 72.1092 319.01 79.22L314.85 63.14ZM488.39 730.66C540.869 716.931 589.258 690.739 629.45 654.31L640.63 666.61C598.45 704.819 547.684 732.301 492.63 746.73L488.39 730.66Z" stroke="white" stroke-miterlimit="10" class="XhWrafei_0"></path>
<path d="M0.540039 439.6L3.66004 439.35C5.75225 463.741 10.0634 487.891 16.54 511.5L13.54 512.33C6.99244 488.535 2.64089 464.19 0.540039 439.6H0.540039ZM73.44 638.86L75.97 637.07C89.0881 655.507 103.719 672.821 119.71 688.83C156.898 726.217 201.131 755.858 249.851 776.037C298.57 796.217 350.807 806.533 403.54 806.39C510.75 806.39 611.54 764.64 687.32 688.83L689.65 690.91L689.53 691.03C613.09 767.42 511.54 809.5 403.45 809.5C295.36 809.5 193.85 767.42 117.45 691.03C101.389 674.863 86.6704 657.415 73.44 638.86V638.86ZM117.26 119.22L117.55 118.93C193.9 42.58 295.54 0.5 403.54 0.5C511.54 0.5 613.14 42.58 689.54 118.97C705.703 135.137 720.484 152.628 733.73 171.26L731.2 173.05C718.064 154.555 703.392 137.2 687.34 121.17C611.54 45.36 510.74 3.62 403.54 3.62C296.34 3.62 195.54 45.36 119.75 121.17L117.26 119.22ZM790.62 298.7L793.62 297.87C800.125 321.661 804.45 345.995 806.54 370.57L803.42 370.81C801.347 346.435 797.063 322.299 790.62 298.7Z" stroke="white" stroke-miterlimit="10" class="XhWrafei_1"></path>
<style data-made-with="vivus-instant">.XhWrafei_0{stroke-dasharray:2267 2269;stroke-dashoffset:2268;animation:XhWrafei_draw_0 7200ms ease-out 0ms infinite,XhWrafei_fade 7200ms linear 0ms infinite;}.XhWrafei_1{stroke-dasharray:3126 3128;stroke-dashoffset:3127;animation:XhWrafei_draw_1 7200ms ease-out 0ms infinite,XhWrafei_fade 7200ms linear 0ms infinite;}@keyframes XhWrafei_draw{100%{stroke-dashoffset:0;}}@keyframes XhWrafei_fade{0%{stroke-opacity:1;}94.44444444444444%{stroke-opacity:1;}100%{stroke-opacity:0;}}@keyframes XhWrafei_draw_0{11.11111111111111%{stroke-dashoffset: 2268}25%{ stroke-dashoffset: 0;}100%{ stroke-dashoffset: 0;}}@keyframes XhWrafei_draw_1{38.88888888888889%{stroke-dashoffset: 3127}52.77777777777778%{ stroke-dashoffset: 0;}100%{ stroke-dashoffset: 0;}}</style></svg>
