<svg width="100%" height="100%" viewBox="0 0 447 447" fill="none" xmlns="http://www.w3.org/2000/svg">
<path fill-rule="evenodd" clip-rule="evenodd" d="M195.86 223.17C195.844 228.838 197.511 234.383 200.648 239.103C203.785 243.824 208.253 247.507 213.485 249.687C218.716 251.867 224.477 252.445 230.038 251.349C235.599 250.253 240.71 247.532 244.723 243.53C248.737 239.528 251.472 234.425 252.584 228.867C253.695 223.309 253.133 217.546 250.968 212.309C248.802 207.071 245.131 202.593 240.42 199.442C235.708 196.292 230.168 194.61 224.5 194.61C220.744 194.605 217.024 195.339 213.552 196.772C210.08 198.204 206.925 200.306 204.265 202.958C201.606 205.61 199.495 208.76 198.052 212.228C196.61 215.696 195.865 219.414 195.86 223.17ZM195.75 223.17C195.734 228.86 197.407 234.426 200.556 239.164C203.706 243.903 208.19 247.6 213.442 249.788C218.694 251.977 224.478 252.558 230.06 251.457C235.642 250.357 240.772 247.625 244.801 243.608C248.83 239.59 251.576 234.467 252.692 228.888C253.808 223.309 253.243 217.524 251.069 212.266C248.896 207.008 245.211 202.513 240.481 199.351C235.751 196.188 230.19 194.5 224.5 194.5C220.73 194.495 216.995 195.232 213.51 196.67C210.025 198.108 206.857 200.218 204.187 202.881C201.518 205.543 199.398 208.705 197.951 212.186C196.503 215.667 195.755 219.4 195.75 223.17Z" stroke="white" stroke-miterlimit="10"/>
<path fill-rule="evenodd" clip-rule="evenodd" d="M217.06 250.87L217.2 250.35C221.984 251.617 227.016 251.617 231.8 250.35L231.94 250.87C227.065 252.164 221.936 252.164 217.06 250.87ZM252.28 230.59L251.75 230.45C253.03 225.681 253.03 220.659 251.75 215.89L252.28 215.75C253.574 220.612 253.574 225.728 252.28 230.59ZM231.94 195.47C227.065 194.176 221.936 194.176 217.06 195.47L217.2 195.99C221.984 194.723 227.016 194.723 231.8 195.99L231.94 195.47ZM196.72 215.75L197.25 215.89C195.97 220.659 195.97 225.681 197.25 230.45L196.72 230.59C195.427 225.728 195.427 220.612 196.72 215.75Z" stroke="white" stroke-miterlimit="10"/>
<path fill-rule="evenodd" clip-rule="evenodd" d="M208.09 248.26L208.33 247.9C213.132 251.058 218.753 252.74 224.5 252.74C230.247 252.74 235.868 251.058 240.67 247.9L240.91 248.26C236.036 251.463 230.332 253.169 224.5 253.169C218.668 253.169 212.964 251.463 208.09 248.26ZM249.5 239.67L249.14 239.44C252.286 234.615 253.96 228.98 253.96 223.22C253.96 217.46 252.286 211.825 249.14 207L249.5 206.67C252.716 211.572 254.429 217.307 254.429 223.17C254.429 229.033 252.716 234.768 249.5 239.67ZM240.89 198.13C236.016 194.927 230.312 193.221 224.48 193.221C218.648 193.221 212.944 194.927 208.07 198.13L208.31 198.49C213.112 195.332 218.733 193.65 224.48 193.65C230.227 193.65 235.848 195.332 240.65 198.49L240.89 198.13ZM199.5 206.67C196.284 211.572 194.571 217.307 194.571 223.17C194.571 229.033 196.284 234.768 199.5 239.67L199.86 239.44C196.715 234.615 195.04 228.98 195.04 223.22C195.04 217.46 196.715 211.825 199.86 207L199.5 206.67Z" stroke="white" stroke-miterlimit="10"/>
<path fill-rule="evenodd" clip-rule="evenodd" d="M218.27 223.17C218.302 224.395 218.693 225.583 219.397 226.587C220.1 227.59 221.084 228.363 222.225 228.81C223.366 229.258 224.613 229.358 225.811 229.1C227.008 228.842 228.103 228.236 228.959 227.359C229.814 226.482 230.392 225.372 230.619 224.168C230.847 222.964 230.715 221.719 230.239 220.59C229.763 219.461 228.965 218.498 227.944 217.82C226.923 217.142 225.725 216.78 224.5 216.78C223.671 216.79 222.853 216.964 222.091 217.291C221.33 217.618 220.64 218.091 220.061 218.685C219.483 219.278 219.027 219.979 218.72 220.749C218.412 221.519 218.259 222.341 218.27 223.17ZM218.17 223.17C218.203 224.414 218.603 225.621 219.319 226.639C220.034 227.658 221.034 228.442 222.193 228.896C223.352 229.349 224.619 229.45 225.836 229.187C227.052 228.924 228.164 228.308 229.033 227.416C229.901 226.525 230.487 225.397 230.718 224.174C230.949 222.951 230.814 221.687 230.33 220.54C229.847 219.393 229.035 218.414 227.999 217.726C226.962 217.038 225.745 216.67 224.5 216.67C223.657 216.68 222.825 216.857 222.051 217.189C221.276 217.522 220.575 218.004 219.987 218.607C219.399 219.211 218.936 219.925 218.624 220.708C218.313 221.491 218.158 222.327 218.17 223.17Z" stroke="white" stroke-miterlimit="10"/>
<path d="M224.5 239.04C233.265 239.04 240.37 231.935 240.37 223.17C240.37 214.405 233.265 207.3 224.5 207.3C215.735 207.3 208.63 214.405 208.63 223.17C208.63 231.935 215.735 239.04 224.5 239.04Z" stroke="white" stroke-miterlimit="10"/>
<path d="M224.5 232.26C229.52 232.26 233.59 228.19 233.59 223.17C233.59 218.15 229.52 214.08 224.5 214.08C219.48 214.08 215.41 218.15 215.41 223.17C215.41 228.19 219.48 232.26 224.5 232.26Z" stroke="white" stroke-miterlimit="10"/>
<path d="M224.5 232.26C229.52 232.26 233.59 228.19 233.59 223.17C233.59 218.15 229.52 214.08 224.5 214.08C219.48 214.08 215.41 218.15 215.41 223.17C215.41 228.19 219.48 232.26 224.5 232.26Z" stroke="white" stroke-miterlimit="10"/>
</svg>
