<svg width="158" height="76" viewBox="0 0 158 76" fill="none" xmlns="http://www.w3.org/2000/svg">
<g clip-path="url(#clip0)">
<path fill-rule="evenodd" clip-rule="evenodd" d="M115.29 2.74997L125.84 2.68997L144.62 20.35L146.25 33.35L154.65 45.59L141.29 33.88L139.9 21.44L124.29 5.87997L119.18 6.03998L135.41 22.27L135.66 22.52V22.87L137.66 40.47L137.72 40.95L137.38 41.29L130.93 47.74L134.71 51.51L132.29 53.93L128.51 50.15L127.8 49.45L127.1 48.74L135.62 40.21L133.7 23.44L116.39 6.11996L95.56 6.75998L92.9 9.41998H97.03L105.72 15.91L101.47 20.16H82.27L85.55 21.56H101.49L105.96 24.44L112.67 23.13L114.25 27.67H64.09L71.61 20.15L76.21 15.55L72.89 15.65L68.42 20.12L60.9 27.64H50.79L42.54 22.84L36.44 28.95L33.44 31.9L32.9 25.45L38.08 20.28L37.74 20.08L53.08 4.84998H66.87L70.75 0.959961L71.03 0.679962H71.43L112.07 0.419983L115.29 2.74997ZM87.29 9.42996L93.8 3.51999H71.63L69.81 5.66998L74.81 9.42996H82.41L73.55 18.29L76.55 18.49L85.61 9.42996H87.29ZM105.35 19.36H110.35L107.48 17.22L105.35 19.36ZM97.11 56.72H58.24L58.68 62.83H62.75L62.9 62.69L66.75 62.83H90.97L97.11 56.72ZM99.67 56.72L93.56 62.83L89.93 66.46L87.23 66.54L82.23 71.54H91.82L93.34 75.19H105.99L118.49 62.88H114.07L107.93 56.74L99.67 56.72ZM89.44 64.38L90.97 62.85H66.75L62.75 66.85L67.44 71.53H79.67L87.03 64.18L89.44 64.38ZM58.7 62.88H62.77L60.77 64.88L58.7 62.88ZM134.2 55.8L136.42 58.03L135.94 53.97L134.2 55.8ZM11.85 5.34998H9.08997L8.75 4.54999H4.06L1.5 2.63998H10.45L63.66 1.92996V2.92996L13.59 3.59998L11.85 5.34998Z" stroke="white" stroke-miterlimit="10"/>
</g>
<defs>
<clipPath id="clip0">
<rect width="157.28" height="75.72" fill="white"/>
</clipPath>
</defs>
</svg>
