<svg width="203" height="203" viewBox="0 0 203 203" fill="none" xmlns="http://www.w3.org/2000/svg">
<mask id="path-1-inside-1" fill="white">
<path fill-rule="evenodd" clip-rule="evenodd" d="M103.5 125.584L104.5 123.936L104.5 124.042L115.961 107.67L115.897 9.99997L97.0002 9.99996L74.8848 39.5537L75.5969 92.4836L81.85 98.7817V106.062L79.7512 106.941V119.306L74.7312 126.027L74.7313 102.478L73.9024 40.8666L57.0002 63.4537L57.0002 162.792L97.0001 203L103.5 191.153L103.5 125.584ZM115.974 128.229L116 168.369L104.5 189.33L104.5 143.801L115.974 128.229ZM106.897 36.4999C106.897 38.9281 104.928 40.8965 102.5 40.8965C100.072 40.8965 98.1036 38.9281 98.1036 36.4999C98.1036 34.0718 100.072 32.1034 102.5 32.1034C104.928 32.1034 106.897 34.0718 106.897 36.4999ZM109 36.4999C109 40.0898 106.09 42.9999 102.5 42.9999C98.9103 42.9999 96.0001 40.0898 96.0001 36.4999C96.0001 32.9101 98.9103 29.9999 102.5 29.9999C106.09 29.9999 109 32.9101 109 36.4999ZM110 36.4999C110 40.6421 106.642 43.9999 102.5 43.9999C98.358 43.9999 95.0001 40.642 95.0001 36.4999C95.0001 32.3578 98.358 28.9999 102.5 28.9999C106.642 28.9999 110 32.3578 110 36.4999Z"/>
</mask>
<path fill-rule="evenodd" clip-rule="evenodd" d="M103.5 125.584L104.5 123.936L104.5 124.042L115.961 107.67L115.897 9.99997L97.0002 9.99996L74.8848 39.5537L75.5969 92.4836L81.85 98.7817V106.062L79.7512 106.941V119.306L74.7312 126.027L74.7313 102.478L73.9024 40.8666L57.0002 63.4537L57.0002 162.792L97.0001 203L103.5 191.153L103.5 125.584ZM115.974 128.229L116 168.369L104.5 189.33L104.5 143.801L115.974 128.229ZM106.897 36.4999C106.897 38.9281 104.928 40.8965 102.5 40.8965C100.072 40.8965 98.1036 38.9281 98.1036 36.4999C98.1036 34.0718 100.072 32.1034 102.5 32.1034C104.928 32.1034 106.897 34.0718 106.897 36.4999ZM109 36.4999C109 40.0898 106.09 42.9999 102.5 42.9999C98.9103 42.9999 96.0001 40.0898 96.0001 36.4999C96.0001 32.9101 98.9103 29.9999 102.5 29.9999C106.09 29.9999 109 32.9101 109 36.4999ZM110 36.4999C110 40.6421 106.642 43.9999 102.5 43.9999C98.358 43.9999 95.0001 40.642 95.0001 36.4999C95.0001 32.3578 98.358 28.9999 102.5 28.9999C106.642 28.9999 110 32.3578 110 36.4999Z" fill="white"/>
<path d="M104.5 123.936L108.5 123.936L108.5 109.635L101.08 121.861L104.5 123.936ZM103.5 125.584L100.08 123.509L99.5 124.465L99.5 125.584L103.5 125.584ZM104.5 124.042L100.5 124.042L100.5 136.731L107.777 126.336L104.5 124.042ZM115.961 107.67L119.238 109.964L119.962 108.929L119.961 107.667L115.961 107.67ZM115.897 9.99997L119.897 9.99738L119.895 5.99997L115.897 5.99997L115.897 9.99997ZM97.0002 9.99996L97.0002 5.99996L94.9975 5.99996L93.7976 7.60342L97.0002 9.99996ZM74.8848 39.5537L71.6822 37.1572L70.8669 38.2468L70.8852 39.6075L74.8848 39.5537ZM75.5969 92.4836L71.5972 92.5374L71.619 94.1544L72.7584 95.3019L75.5969 92.4836ZM81.85 98.7817H85.85L85.85 97.1332L84.6886 95.9634L81.85 98.7817ZM81.85 106.062L83.394 109.752L85.85 108.725L85.85 106.062H81.85ZM79.7512 106.941L78.2072 103.251L75.7512 104.278V106.941H79.7512ZM79.7512 119.306L82.956 121.699L83.7512 120.635V119.306H79.7512ZM74.7312 126.027L70.7312 126.027L70.7312 138.068L77.9361 128.421L74.7312 126.027ZM74.7313 102.478L78.7313 102.478L78.7313 102.451L78.7309 102.424L74.7313 102.478ZM73.9024 40.8666L77.902 40.8128L77.7439 29.0567L70.6998 38.4701L73.9024 40.8666ZM57.0002 63.4537L53.7976 61.0571L53.0002 62.1228L53.0002 63.4537L57.0002 63.4537ZM57.0002 162.792L53.0002 162.792L53.0002 164.442L54.1645 165.613L57.0002 162.792ZM97.0001 203L94.1643 205.821L97.9352 209.612L100.507 204.924L97.0001 203ZM103.5 191.153L107.007 193.077L107.5 192.178L107.5 191.153L103.5 191.153ZM116 168.369L119.507 170.293L120.001 169.393L120 168.366L116 168.369ZM115.974 128.229L119.974 128.226L119.966 116.068L112.754 125.856L115.974 128.229ZM104.5 189.33L100.5 189.33L108.007 191.254L104.5 189.33ZM104.5 143.801L101.28 141.428L100.5 142.486L100.5 143.801L104.5 143.801ZM102.5 40.8965L102.5 36.8965L102.5 36.8965L102.5 40.8965ZM106.897 36.4999L102.897 36.4999L102.897 36.4999L106.897 36.4999ZM98.1036 36.4999L102.104 36.4999L102.104 36.4999L98.1036 36.4999ZM102.5 32.1034L102.5 36.1034L102.5 36.1034L102.5 32.1034ZM102.5 42.9999L102.5 46.9999L102.5 46.9999L102.5 42.9999ZM109 36.4999L105 36.4999V36.4999L109 36.4999ZM96.0001 36.4999L92.0001 36.4999L92.0001 36.4999H96.0001ZM102.5 29.9999L102.5 33.9999L102.5 33.9999L102.5 29.9999ZM102.5 43.9999L102.5 39.9999L102.5 39.9999L102.5 43.9999ZM95.0001 36.4999L99.0001 36.4999L99.0001 36.4999L95.0001 36.4999ZM101.08 121.861L100.08 123.509L106.92 127.659L107.92 126.011L101.08 121.861ZM108.5 124.042L108.5 123.936L100.5 123.936L100.5 124.042L108.5 124.042ZM112.684 105.376L101.223 121.748L107.777 126.336L119.238 109.964L112.684 105.376ZM111.897 10.0026L111.961 107.672L119.961 107.667L119.897 9.99738L111.897 10.0026ZM97.0002 14L115.897 14L115.897 5.99997L97.0002 5.99996L97.0002 14ZM78.0874 41.9503L100.203 12.3965L93.7976 7.60342L71.6822 37.1572L78.0874 41.9503ZM79.5965 92.4298L78.8845 39.4999L70.8852 39.6075L71.5972 92.5374L79.5965 92.4298ZM84.6886 95.9634L78.4354 89.6653L72.7584 95.3019L79.0115 101.6L84.6886 95.9634ZM85.85 106.062V98.7817H77.85V106.062H85.85ZM81.2952 110.631L83.394 109.752L80.306 102.372L78.2072 103.251L81.2952 110.631ZM83.7512 119.306V106.941H75.7512V119.306H83.7512ZM77.9361 128.421L82.956 121.699L76.5463 116.912L71.5264 123.634L77.9361 128.421ZM70.7313 102.478L70.7312 126.027L78.7312 126.027L78.7313 102.478L70.7313 102.478ZM69.9028 40.9204L70.7316 102.532L78.7309 102.424L77.902 40.8128L69.9028 40.9204ZM60.2028 65.8502L77.105 43.2631L70.6998 38.4701L53.7976 61.0571L60.2028 65.8502ZM61.0002 162.792L61.0002 63.4537L53.0002 63.4537L53.0002 162.792L61.0002 162.792ZM99.8359 200.179L59.836 159.971L54.1645 165.613L94.1643 205.821L99.8359 200.179ZM99.9931 189.229L93.4932 201.076L100.507 204.924L107.007 193.077L99.9931 189.229ZM99.5 125.584L99.5 191.153L107.5 191.153L107.5 125.584L99.5 125.584ZM120 168.366L119.974 128.226L111.974 128.231L112 168.372L120 168.366ZM108.007 191.254L119.507 170.293L112.493 166.445L100.993 187.406L108.007 191.254ZM100.5 143.801L100.5 189.33L108.5 189.33L108.5 143.801L100.5 143.801ZM112.754 125.856L101.28 141.428L107.72 146.174L119.194 130.601L112.754 125.856ZM102.5 44.8965C107.137 44.8965 110.897 41.1372 110.897 36.4999L102.897 36.4999C102.897 36.7189 102.719 36.8965 102.5 36.8965L102.5 44.8965ZM94.1036 36.4999C94.1036 41.1372 97.8628 44.8965 102.5 44.8965L102.5 36.8965C102.281 36.8965 102.104 36.7189 102.104 36.4999L94.1036 36.4999ZM102.5 28.1034C97.8628 28.1034 94.1036 31.8626 94.1036 36.4999L102.104 36.4999C102.104 36.2809 102.281 36.1034 102.5 36.1034L102.5 28.1034ZM110.897 36.4999C110.897 31.8626 107.137 28.1034 102.5 28.1034L102.5 36.1034C102.719 36.1034 102.897 36.2809 102.897 36.4999L110.897 36.4999ZM102.5 46.9999C108.299 46.9999 113 42.2989 113 36.4999L105 36.4999C105 37.8806 103.881 38.9999 102.5 38.9999L102.5 46.9999ZM92.0001 36.4999C92.0001 42.2989 96.7011 46.9999 102.5 46.9999V38.9999C101.119 38.9999 100 37.8806 100 36.4999H92.0001ZM102.5 25.9999C96.7011 25.9999 92.0001 30.7009 92.0001 36.4999L100 36.4999C100 35.1192 101.119 33.9999 102.5 33.9999V25.9999ZM113 36.4999C113 30.7009 108.299 25.9999 102.5 25.9999L102.5 33.9999C103.881 33.9999 105 35.1192 105 36.4999L113 36.4999ZM102.5 47.9999C108.851 47.9999 114 42.8512 114 36.4999L106 36.4999C106 38.4329 104.433 39.9999 102.5 39.9999L102.5 47.9999ZM91.0001 36.4999C91.0001 42.8512 96.1488 47.9999 102.5 47.9999V39.9999C100.567 39.9999 99.0001 38.4329 99.0001 36.4999L91.0001 36.4999ZM102.5 24.9999C96.1488 24.9999 91.0001 30.1486 91.0001 36.4999L99.0001 36.4999C99.0001 34.5669 100.567 32.9999 102.5 32.9999V24.9999ZM114 36.4999C114 30.1486 108.851 24.9999 102.5 24.9999V32.9999C104.433 32.9999 106 34.5669 106 36.4999L114 36.4999Z" fill="white" mask="url(#path-1-inside-1)"/>
</svg>
