<svg width="43" height="44" viewBox="0 0 43 44" fill="none" xmlns="http://www.w3.org/2000/svg">
<path d="M42.3856 1.48779H0.813965V42.9938H42.3856V1.48779Z" fill="white" stroke="white"/>
<path d="M29.478 17.3C29.262 16.454 28.668 15.248 28.074 14.312L26.4 14.942C26.976 15.896 27.534 17.174 27.696 17.984L29.478 17.3ZM19.542 26.876V25.382H18.228V24.32H19.578V22.79H18.768C19.002 22.25 19.308 21.458 19.632 20.684L18.282 20.378C18.156 20.99 17.886 21.908 17.67 22.538L18.696 22.79H16.212L17.094 22.502C17.022 21.962 16.716 21.08 16.428 20.468L15.312 20.792C15.6 21.422 15.852 22.232 15.924 22.79H15.258V24.32H16.608V25.382H15.276V26.876H16.608V29.738H18.228V26.876H19.542ZM29.172 20.648V18.686H26.274V13.754H24.186V18.686H21.99V20.648H24.15C24.024 23.042 23.556 25.868 21.756 28.1V18.542H18.408V17.048H22.008V15.248H18.408V13.772H16.392V15.248H12.918V17.048H16.392V18.542H13.116V30.512H14.88V20.234H19.956V28.514C19.956 28.694 19.902 28.748 19.74 28.748C19.56 28.766 19.056 28.766 18.588 28.748C18.804 29.198 19.02 29.954 19.056 30.44C19.992 30.44 20.64 30.404 21.144 30.116C21.342 30.008 21.486 29.864 21.576 29.684C21.918 29.99 22.242 30.314 22.44 30.566C24.024 28.946 24.96 27.002 25.518 25.022C26.076 27.308 26.886 29.234 28.164 30.584C28.488 30.008 29.172 29.198 29.658 28.82C27.894 27.164 26.994 24.068 26.526 20.648H29.172Z" fill="black"/>
</svg>
